<svg width="282" height="235" viewBox="0 0 282 235" fill="none" xmlns="http://www.w3.org/2000/svg">
<path fill-rule="evenodd" clip-rule="evenodd" d="M140.083 19.9141L243.223 94.8494L203.827 216.097H76.3392L36.9434 94.8494L140.083 19.9141Z" fill="#E6E6E6" stroke="#C0C0C0"/>
<path fill-rule="evenodd" clip-rule="evenodd" d="M140.083 41.6035L222.594 101.552L191.078 198.55H89.0875L57.5708 101.552L140.083 41.6035Z" fill="#F5F5F5" stroke="#C0C0C0"/>
<path fill-rule="evenodd" clip-rule="evenodd" d="M140.083 63.2931L201.967 108.254L178.329 181.003H101.836L78.199 108.254L140.083 63.2931Z" fill="#E6E6E6" stroke="#C0C0C0"/>
<path fill-rule="evenodd" clip-rule="evenodd" d="M140.083 84.9825L181.339 114.957L165.581 163.456H114.585L98.8271 114.957L140.083 84.9825Z" fill="#F5F5F5" stroke="#C0C0C0"/>
<path fill-rule="evenodd" clip-rule="evenodd" d="M140.083 106.672L160.711 121.659L152.832 145.909H127.334L119.455 121.659L140.083 106.672Z" fill="#E6E6E6" stroke="#C0C0C0"/>
<path d="M140.083 128.362V19.9141" stroke="#C0C0C0"/>
<path d="M140.083 128.361L243.223 94.8494" stroke="#C0C0C0"/>
<path d="M140.083 128.362L203.827 216.097" stroke="#C0C0C0"/>
<path d="M140.083 128.362L76.3391 216.097" stroke="#C0C0C0"/>
<path d="M140.083 128.361L36.9434 94.8494" stroke="#C0C0C0"/>
<path d="M128.687 5.6543H126.408V4.73438H128.687C129.129 4.73438 129.486 4.66406 129.76 4.52344C130.033 4.38281 130.232 4.1875 130.357 3.9375C130.486 3.6875 130.551 3.40234 130.551 3.08203C130.551 2.78906 130.486 2.51367 130.357 2.25586C130.232 1.99805 130.033 1.79102 129.76 1.63477C129.486 1.47461 129.129 1.39453 128.687 1.39453H126.672V9H125.541V0.46875H128.687C129.332 0.46875 129.877 0.580078 130.322 0.802734C130.767 1.02539 131.105 1.33398 131.336 1.72852C131.566 2.11914 131.681 2.56641 131.681 3.07031C131.681 3.61719 131.566 4.08398 131.336 4.4707C131.105 4.85742 130.767 5.15234 130.322 5.35547C129.877 5.55469 129.332 5.6543 128.687 5.6543ZM134.031 0V9H132.947V0H134.031ZM133.773 5.58984L133.322 5.57227C133.326 5.13867 133.39 4.73828 133.515 4.37109C133.64 4 133.816 3.67773 134.043 3.4043C134.269 3.13086 134.539 2.91992 134.851 2.77148C135.168 2.61914 135.517 2.54297 135.9 2.54297C136.213 2.54297 136.494 2.58594 136.744 2.67188C136.994 2.75391 137.207 2.88672 137.383 3.07031C137.562 3.25391 137.699 3.49219 137.793 3.78516C137.886 4.07422 137.933 4.42773 137.933 4.8457V9H136.843V4.83398C136.843 4.50195 136.795 4.23633 136.697 4.03711C136.599 3.83398 136.457 3.6875 136.269 3.59766C136.082 3.50391 135.851 3.45703 135.578 3.45703C135.308 3.45703 135.062 3.51367 134.84 3.62695C134.621 3.74023 134.431 3.89648 134.271 4.0957C134.115 4.29492 133.992 4.52344 133.902 4.78125C133.816 5.03516 133.773 5.30469 133.773 5.58984ZM139.269 5.90039V5.76562C139.269 5.30859 139.336 4.88477 139.468 4.49414C139.601 4.09961 139.793 3.75781 140.043 3.46875C140.293 3.17578 140.595 2.94922 140.951 2.78906C141.306 2.625 141.705 2.54297 142.146 2.54297C142.592 2.54297 142.992 2.625 143.347 2.78906C143.707 2.94922 144.011 3.17578 144.261 3.46875C144.515 3.75781 144.709 4.09961 144.842 4.49414C144.974 4.88477 145.041 5.30859 145.041 5.76562V5.90039C145.041 6.35742 144.974 6.78125 144.842 7.17188C144.709 7.5625 144.515 7.9043 144.261 8.19727C144.011 8.48633 143.709 8.71289 143.353 8.87695C143.002 9.03711 142.603 9.11719 142.158 9.11719C141.713 9.11719 141.312 9.03711 140.957 8.87695C140.601 8.71289 140.297 8.48633 140.043 8.19727C139.793 7.9043 139.601 7.5625 139.468 7.17188C139.336 6.78125 139.269 6.35742 139.269 5.90039ZM140.353 5.76562V5.90039C140.353 6.2168 140.39 6.51562 140.465 6.79688C140.539 7.07422 140.65 7.32031 140.799 7.53516C140.951 7.75 141.14 7.91992 141.367 8.04492C141.593 8.16602 141.857 8.22656 142.158 8.22656C142.455 8.22656 142.715 8.16602 142.937 8.04492C143.164 7.91992 143.351 7.75 143.5 7.53516C143.648 7.32031 143.76 7.07422 143.834 6.79688C143.912 6.51562 143.951 6.2168 143.951 5.90039V5.76562C143.951 5.45312 143.912 5.1582 143.834 4.88086C143.76 4.59961 143.646 4.35156 143.494 4.13672C143.345 3.91797 143.158 3.74609 142.931 3.62109C142.709 3.49609 142.447 3.43359 142.146 3.43359C141.849 3.43359 141.588 3.49609 141.361 3.62109C141.138 3.74609 140.951 3.91797 140.799 4.13672C140.65 4.35156 140.539 4.59961 140.465 4.88086C140.39 5.1582 140.353 5.45312 140.353 5.76562ZM149.054 2.66016V3.49219H145.627V2.66016H149.054ZM146.787 1.11914H147.871V7.42969C147.871 7.64453 147.904 7.80664 147.97 7.91602C148.037 8.02539 148.123 8.09766 148.228 8.13281C148.334 8.16797 148.447 8.18555 148.568 8.18555C148.658 8.18555 148.752 8.17773 148.849 8.16211C148.951 8.14258 149.027 8.12695 149.078 8.11523L149.084 9C148.998 9.02734 148.885 9.05273 148.744 9.07617C148.607 9.10352 148.441 9.11719 148.246 9.11719C147.98 9.11719 147.736 9.06445 147.513 8.95898C147.291 8.85352 147.113 8.67773 146.98 8.43164C146.851 8.18164 146.787 7.8457 146.787 7.42383V1.11914ZM149.922 5.90039V5.76562C149.922 5.30859 149.988 4.88477 150.121 4.49414C150.254 4.09961 150.445 3.75781 150.695 3.46875C150.945 3.17578 151.248 2.94922 151.603 2.78906C151.959 2.625 152.357 2.54297 152.799 2.54297C153.244 2.54297 153.644 2.625 154 2.78906C154.359 2.94922 154.664 3.17578 154.914 3.46875C155.168 3.75781 155.361 4.09961 155.494 4.49414C155.627 4.88477 155.693 5.30859 155.693 5.76562V5.90039C155.693 6.35742 155.627 6.78125 155.494 7.17188C155.361 7.5625 155.168 7.9043 154.914 8.19727C154.664 8.48633 154.361 8.71289 154.006 8.87695C153.654 9.03711 153.256 9.11719 152.81 9.11719C152.365 9.11719 151.965 9.03711 151.609 8.87695C151.254 8.71289 150.949 8.48633 150.695 8.19727C150.445 7.9043 150.254 7.5625 150.121 7.17188C149.988 6.78125 149.922 6.35742 149.922 5.90039ZM151.006 5.76562V5.90039C151.006 6.2168 151.043 6.51562 151.117 6.79688C151.191 7.07422 151.302 7.32031 151.451 7.53516C151.603 7.75 151.793 7.91992 152.019 8.04492C152.246 8.16602 152.51 8.22656 152.81 8.22656C153.107 8.22656 153.367 8.16602 153.59 8.04492C153.816 7.91992 154.004 7.75 154.152 7.53516C154.301 7.32031 154.412 7.07422 154.486 6.79688C154.564 6.51562 154.603 6.2168 154.603 5.90039V5.76562C154.603 5.45312 154.564 5.1582 154.486 4.88086C154.412 4.59961 154.299 4.35156 154.146 4.13672C153.998 3.91797 153.81 3.74609 153.584 3.62109C153.361 3.49609 153.099 3.43359 152.799 3.43359C152.502 3.43359 152.24 3.49609 152.013 3.62109C151.791 3.74609 151.603 3.91797 151.451 4.13672C151.302 4.35156 151.191 4.59961 151.117 4.88086C151.043 5.1582 151.006 5.45312 151.006 5.76562ZM131.711 21.3184C131.711 21.1621 131.676 21.0176 131.605 20.8848C131.539 20.748 131.4 20.625 131.189 20.5156C130.982 20.4023 130.67 20.3047 130.252 20.2227C129.9 20.1484 129.582 20.0605 129.297 19.959C129.015 19.8574 128.775 19.7344 128.576 19.5898C128.381 19.4453 128.23 19.2754 128.125 19.0801C128.019 18.8848 127.967 18.6562 127.967 18.3945C127.967 18.1445 128.021 17.9082 128.131 17.6855C128.244 17.4629 128.402 17.2656 128.605 17.0938C128.812 16.9219 129.06 16.7871 129.349 16.6895C129.638 16.5918 129.961 16.543 130.316 16.543C130.824 16.543 131.258 16.6328 131.617 16.8125C131.976 16.9922 132.252 17.2324 132.443 17.5332C132.635 17.8301 132.73 18.1602 132.73 18.5234H131.646C131.646 18.3477 131.593 18.1777 131.488 18.0137C131.386 17.8457 131.236 17.707 131.037 17.5977C130.842 17.4883 130.601 17.4336 130.316 17.4336C130.015 17.4336 129.771 17.4805 129.584 17.5742C129.4 17.6641 129.265 17.7793 129.179 17.9199C129.097 18.0605 129.056 18.209 129.056 18.3652C129.056 18.4824 129.076 18.5879 129.115 18.6816C129.158 18.7715 129.232 18.8555 129.338 18.9336C129.443 19.0078 129.592 19.0781 129.783 19.1445C129.974 19.2109 130.218 19.2773 130.515 19.3438C131.035 19.4609 131.463 19.6016 131.799 19.7656C132.135 19.9297 132.385 20.1309 132.549 20.3691C132.713 20.6074 132.795 20.8965 132.795 21.2363C132.795 21.5137 132.736 21.7676 132.619 21.998C132.506 22.2285 132.34 22.4277 132.121 22.5957C131.906 22.7598 131.648 22.8887 131.347 22.9824C131.051 23.0723 130.717 23.1172 130.345 23.1172C129.787 23.1172 129.314 23.0176 128.927 22.8184C128.541 22.6191 128.248 22.3613 128.049 22.0449C127.849 21.7285 127.75 21.3945 127.75 21.043H128.84C128.855 21.3398 128.941 21.5762 129.097 21.752C129.254 21.9238 129.445 22.0469 129.672 22.1211C129.898 22.1914 130.123 22.2266 130.345 22.2266C130.642 22.2266 130.89 22.1875 131.09 22.1094C131.293 22.0312 131.447 21.9238 131.552 21.7871C131.658 21.6504 131.711 21.4941 131.711 21.3184ZM135.302 14V23H134.218V14H135.302ZM135.045 19.5898L134.593 19.5723C134.597 19.1387 134.662 18.7383 134.787 18.3711C134.912 18 135.088 17.6777 135.314 17.4043C135.541 17.1309 135.81 16.9199 136.123 16.7715C136.439 16.6191 136.789 16.543 137.172 16.543C137.484 16.543 137.765 16.5859 138.015 16.6719C138.265 16.7539 138.478 16.8867 138.654 17.0703C138.834 17.2539 138.97 17.4922 139.064 17.7852C139.158 18.0742 139.205 18.4277 139.205 18.8457V23H138.115V18.834C138.115 18.502 138.066 18.2363 137.968 18.0371C137.871 17.834 137.728 17.6875 137.541 17.5977C137.353 17.5039 137.123 17.457 136.849 17.457C136.58 17.457 136.334 17.5137 136.111 17.627C135.892 17.7402 135.703 17.8965 135.543 18.0957C135.386 18.2949 135.263 18.5234 135.174 18.7812C135.088 19.0352 135.045 19.3047 135.045 19.5898ZM140.541 19.9004V19.7656C140.541 19.3086 140.607 18.8848 140.74 18.4941C140.873 18.0996 141.064 17.7578 141.314 17.4688C141.564 17.1758 141.867 16.9492 142.222 16.7891C142.578 16.625 142.976 16.543 143.418 16.543C143.863 16.543 144.263 16.625 144.619 16.7891C144.978 16.9492 145.283 17.1758 145.533 17.4688C145.787 17.7578 145.98 18.0996 146.113 18.4941C146.246 18.8848 146.312 19.3086 146.312 19.7656V19.9004C146.312 20.3574 146.246 20.7812 146.113 21.1719C145.98 21.5625 145.787 21.9043 145.533 22.1973C145.283 22.4863 144.98 22.7129 144.625 22.877C144.273 23.0371 143.875 23.1172 143.429 23.1172C142.984 23.1172 142.584 23.0371 142.228 22.877C141.873 22.7129 141.568 22.4863 141.314 22.1973C141.064 21.9043 140.873 21.5625 140.74 21.1719C140.607 20.7812 140.541 20.3574 140.541 19.9004ZM141.625 19.7656V19.9004C141.625 20.2168 141.662 20.5156 141.736 20.7969C141.81 21.0742 141.922 21.3203 142.07 21.5352C142.222 21.75 142.412 21.9199 142.638 22.0449C142.865 22.166 143.129 22.2266 143.429 22.2266C143.726 22.2266 143.986 22.166 144.209 22.0449C144.435 21.9199 144.623 21.75 144.771 21.5352C144.92 21.3203 145.031 21.0742 145.105 20.7969C145.183 20.5156 145.222 20.2168 145.222 19.9004V19.7656C145.222 19.4531 145.183 19.1582 145.105 18.8809C145.031 18.5996 144.918 18.3516 144.765 18.1367C144.617 17.918 144.429 17.7461 144.203 17.6211C143.98 17.4961 143.718 17.4336 143.418 17.4336C143.121 17.4336 142.859 17.4961 142.633 17.6211C142.41 17.7461 142.222 17.918 142.07 18.1367C141.922 18.3516 141.81 18.5996 141.736 18.8809C141.662 19.1582 141.625 19.4531 141.625 19.7656ZM148.756 17.8789V25.4375H147.666V16.6602H148.662L148.756 17.8789ZM153.027 19.7773V19.9004C153.027 20.3613 152.972 20.7891 152.863 21.1836C152.754 21.5742 152.593 21.9141 152.383 22.2031C152.176 22.4922 151.92 22.7168 151.615 22.877C151.31 23.0371 150.961 23.1172 150.566 23.1172C150.164 23.1172 149.808 23.0508 149.5 22.918C149.191 22.7852 148.929 22.5918 148.715 22.3379C148.5 22.084 148.328 21.7793 148.199 21.4238C148.074 21.0684 147.988 20.668 147.941 20.2227V19.5664C147.988 19.0977 148.076 18.6777 148.205 18.3066C148.334 17.9355 148.504 17.6191 148.715 17.3574C148.929 17.0918 149.189 16.8906 149.494 16.7539C149.799 16.6133 150.15 16.543 150.549 16.543C150.947 16.543 151.301 16.6211 151.609 16.7773C151.918 16.9297 152.177 17.1484 152.388 17.4336C152.599 17.7188 152.758 18.0605 152.863 18.459C152.972 18.8535 153.027 19.293 153.027 19.7773ZM151.937 19.9004V19.7773C151.937 19.4609 151.904 19.1641 151.838 18.8867C151.771 18.6055 151.668 18.3594 151.527 18.1484C151.39 17.9336 151.215 17.7656 151 17.6445C150.785 17.5195 150.529 17.457 150.232 17.457C149.959 17.457 149.72 17.5039 149.517 17.5977C149.318 17.6914 149.148 17.8184 149.008 17.9785C148.867 18.1348 148.752 18.3145 148.662 18.5176C148.576 18.7168 148.511 18.9238 148.468 19.1387V20.6562C148.547 20.9297 148.656 21.1875 148.797 21.4297C148.937 21.668 149.125 21.8613 149.359 22.0098C149.593 22.1543 149.888 22.2266 150.244 22.2266C150.537 22.2266 150.789 22.166 151 22.0449C151.215 21.9199 151.39 21.75 151.527 21.5352C151.668 21.3203 151.771 21.0742 151.838 20.7969C151.904 20.5156 151.937 20.2168 151.937 19.9004Z" fill="#333333"/>
<path d="M252.399 80.4702V89.0015H251.268V80.4702H252.399ZM255.469 80.0015V89.0015H254.379V80.0015H255.469ZM258.387 80.0015V89.0015H257.297V80.0015H258.387ZM264.006 87.5366V82.6616H265.096V89.0015H264.059L264.006 87.5366ZM264.211 86.2007L264.662 86.189C264.662 86.6108 264.617 87.0015 264.528 87.3608C264.442 87.7163 264.301 88.0249 264.106 88.2866C263.91 88.5483 263.655 88.7534 263.338 88.9019C263.022 89.0464 262.637 89.1187 262.184 89.1187C261.875 89.1187 261.592 89.0737 261.334 88.9839C261.08 88.894 260.862 88.7554 260.678 88.5679C260.494 88.3804 260.352 88.1362 260.25 87.8354C260.153 87.5347 260.104 87.1733 260.104 86.7515V82.6616H261.188V86.7632C261.188 87.0483 261.219 87.2847 261.281 87.4722C261.348 87.6558 261.436 87.8022 261.545 87.9116C261.658 88.0171 261.783 88.0913 261.92 88.1343C262.061 88.1772 262.205 88.1987 262.354 88.1987C262.815 88.1987 263.18 88.1108 263.449 87.9351C263.719 87.7554 263.912 87.5151 264.03 87.2144C264.151 86.9097 264.211 86.5718 264.211 86.2007ZM270.44 87.3198C270.44 87.1636 270.405 87.019 270.334 86.8862C270.268 86.7495 270.129 86.6265 269.918 86.5171C269.711 86.4038 269.399 86.3062 268.981 86.2241C268.629 86.1499 268.311 86.062 268.026 85.9604C267.744 85.8589 267.504 85.7358 267.305 85.5913C267.11 85.4468 266.959 85.2769 266.854 85.0815C266.748 84.8862 266.696 84.6577 266.696 84.396C266.696 84.146 266.75 83.9097 266.86 83.687C266.973 83.4644 267.131 83.2671 267.334 83.0952C267.541 82.9233 267.789 82.7886 268.078 82.6909C268.367 82.5933 268.69 82.5444 269.045 82.5444C269.553 82.5444 269.987 82.6343 270.346 82.814C270.705 82.9937 270.981 83.2339 271.172 83.5347C271.364 83.8315 271.459 84.1616 271.459 84.5249H270.375C270.375 84.3491 270.323 84.1792 270.217 84.0151C270.115 83.8472 269.965 83.7085 269.766 83.5991C269.571 83.4897 269.33 83.4351 269.045 83.4351C268.744 83.4351 268.5 83.4819 268.313 83.5757C268.129 83.6655 267.994 83.7808 267.908 83.9214C267.826 84.062 267.785 84.2104 267.785 84.3667C267.785 84.4839 267.805 84.5894 267.844 84.6831C267.887 84.7729 267.961 84.8569 268.067 84.9351C268.172 85.0093 268.321 85.0796 268.512 85.146C268.703 85.2124 268.948 85.2788 269.244 85.3452C269.764 85.4624 270.192 85.603 270.528 85.7671C270.864 85.9312 271.114 86.1323 271.278 86.3706C271.442 86.6089 271.524 86.8979 271.524 87.2378C271.524 87.5151 271.465 87.769 271.348 87.9995C271.235 88.23 271.069 88.4292 270.85 88.5972C270.635 88.7612 270.377 88.8901 270.076 88.9839C269.78 89.0737 269.446 89.1187 269.074 89.1187C268.516 89.1187 268.043 89.019 267.656 88.8198C267.27 88.6206 266.977 88.3628 266.778 88.0464C266.578 87.73 266.479 87.396 266.479 87.0444H267.569C267.584 87.3413 267.67 87.5776 267.826 87.7534C267.983 87.9253 268.174 88.0483 268.401 88.1226C268.627 88.1929 268.852 88.228 269.074 88.228C269.371 88.228 269.619 88.189 269.819 88.1108C270.022 88.0327 270.176 87.9253 270.281 87.7886C270.387 87.6519 270.44 87.4956 270.44 87.3198ZM275.602 82.6616V83.4937H272.174V82.6616H275.602ZM273.334 81.1206H274.418V87.4312C274.418 87.646 274.451 87.8081 274.518 87.9175C274.584 88.0269 274.67 88.0991 274.776 88.1343C274.881 88.1694 274.994 88.187 275.115 88.187C275.205 88.187 275.299 88.1792 275.397 88.1636C275.498 88.144 275.574 88.1284 275.625 88.1167L275.631 89.0015C275.545 89.0288 275.432 89.0542 275.291 89.0776C275.155 89.105 274.989 89.1187 274.793 89.1187C274.528 89.1187 274.283 89.0659 274.061 88.9604C273.838 88.855 273.66 88.6792 273.528 88.4331C273.399 88.1831 273.334 87.8472 273.334 87.4253V81.1206ZM277.957 83.6577V89.0015H276.873V82.6616H277.928L277.957 83.6577ZM279.938 82.6265L279.932 83.6343C279.842 83.6147 279.756 83.603 279.674 83.5991C279.596 83.5913 279.506 83.5874 279.405 83.5874C279.155 83.5874 278.934 83.6265 278.742 83.7046C278.551 83.7827 278.389 83.8921 278.256 84.0327C278.123 84.1733 278.018 84.3413 277.94 84.5366C277.865 84.728 277.817 84.939 277.793 85.1694L277.489 85.3452C277.489 84.9624 277.526 84.603 277.6 84.2671C277.678 83.9312 277.797 83.6343 277.957 83.3765C278.117 83.1147 278.321 82.9116 278.567 82.7671C278.817 82.6187 279.114 82.5444 279.457 82.5444C279.535 82.5444 279.625 82.5542 279.727 82.5737C279.828 82.5894 279.899 82.6069 279.938 82.6265ZM254.76 101.917V98.6538C254.76 98.4038 254.709 98.187 254.608 98.0034C254.51 97.8159 254.362 97.6714 254.162 97.5698C253.963 97.4683 253.717 97.4175 253.424 97.4175C253.151 97.4175 252.91 97.4644 252.703 97.5581C252.5 97.6519 252.34 97.7749 252.223 97.9272C252.11 98.0796 252.053 98.2437 252.053 98.4194H250.969C250.969 98.1929 251.028 97.9683 251.145 97.7456C251.262 97.5229 251.43 97.3218 251.649 97.1421C251.871 96.9585 252.137 96.814 252.446 96.7085C252.758 96.5991 253.106 96.5444 253.489 96.5444C253.949 96.5444 254.356 96.6226 254.707 96.7788C255.063 96.9351 255.34 97.1714 255.539 97.4878C255.742 97.8003 255.844 98.1929 255.844 98.6655V101.619C255.844 101.83 255.862 102.054 255.897 102.292C255.936 102.531 255.992 102.736 256.067 102.908V103.001H254.936C254.881 102.876 254.838 102.71 254.807 102.503C254.776 102.292 254.76 102.097 254.76 101.917ZM254.948 99.1577L254.959 99.9194H253.864C253.555 99.9194 253.28 99.9448 253.037 99.9956C252.795 100.042 252.592 100.115 252.428 100.212C252.264 100.31 252.139 100.433 252.053 100.582C251.967 100.726 251.924 100.896 251.924 101.091C251.924 101.291 251.969 101.472 252.059 101.636C252.149 101.8 252.283 101.931 252.463 102.029C252.647 102.123 252.871 102.169 253.137 102.169C253.469 102.169 253.762 102.099 254.016 101.958C254.27 101.818 254.471 101.646 254.619 101.443C254.772 101.24 254.854 101.042 254.865 100.851L255.328 101.373C255.301 101.537 255.227 101.718 255.106 101.917C254.985 102.117 254.823 102.308 254.619 102.492C254.42 102.671 254.182 102.822 253.905 102.943C253.631 103.06 253.323 103.119 252.979 103.119C252.549 103.119 252.172 103.035 251.848 102.867C251.528 102.699 251.278 102.474 251.098 102.193C250.922 101.908 250.834 101.589 250.834 101.238C250.834 100.898 250.901 100.599 251.033 100.341C251.166 100.08 251.358 99.8628 251.608 99.6909C251.858 99.5151 252.158 99.3823 252.51 99.2925C252.862 99.2026 253.254 99.1577 253.688 99.1577H254.948ZM260.203 96.6616V97.4937H256.776V96.6616H260.203ZM257.936 95.1206H259.02V101.431C259.02 101.646 259.053 101.808 259.119 101.917C259.186 102.027 259.272 102.099 259.377 102.134C259.483 102.169 259.596 102.187 259.717 102.187C259.807 102.187 259.901 102.179 259.998 102.164C260.1 102.144 260.176 102.128 260.227 102.117L260.233 103.001C260.147 103.029 260.033 103.054 259.893 103.078C259.756 103.105 259.59 103.119 259.395 103.119C259.129 103.119 258.885 103.066 258.662 102.96C258.44 102.855 258.262 102.679 258.129 102.433C258 102.183 257.936 101.847 257.936 101.425V95.1206ZM261.071 99.9019V99.7671C261.071 99.3101 261.137 98.8862 261.27 98.4956C261.403 98.1011 261.594 97.7593 261.844 97.4702C262.094 97.1772 262.397 96.9507 262.752 96.7905C263.108 96.6265 263.506 96.5444 263.948 96.5444C264.393 96.5444 264.793 96.6265 265.149 96.7905C265.508 96.9507 265.813 97.1772 266.063 97.4702C266.317 97.7593 266.51 98.1011 266.643 98.4956C266.776 98.8862 266.842 99.3101 266.842 99.7671V99.9019C266.842 100.359 266.776 100.783 266.643 101.173C266.51 101.564 266.317 101.906 266.063 102.199C265.813 102.488 265.51 102.714 265.155 102.878C264.803 103.039 264.405 103.119 263.959 103.119C263.514 103.119 263.114 103.039 262.758 102.878C262.403 102.714 262.098 102.488 261.844 102.199C261.594 101.906 261.403 101.564 261.27 101.173C261.137 100.783 261.071 100.359 261.071 99.9019ZM262.155 99.7671V99.9019C262.155 100.218 262.192 100.517 262.266 100.798C262.34 101.076 262.451 101.322 262.6 101.537C262.752 101.751 262.942 101.921 263.168 102.046C263.395 102.167 263.658 102.228 263.959 102.228C264.256 102.228 264.516 102.167 264.739 102.046C264.965 101.921 265.153 101.751 265.301 101.537C265.449 101.322 265.561 101.076 265.635 100.798C265.713 100.517 265.752 100.218 265.752 99.9019V99.7671C265.752 99.4546 265.713 99.1597 265.635 98.8823C265.561 98.6011 265.448 98.353 265.295 98.1382C265.147 97.9194 264.959 97.7476 264.733 97.6226C264.51 97.4976 264.248 97.4351 263.948 97.4351C263.651 97.4351 263.389 97.4976 263.162 97.6226C262.94 97.7476 262.752 97.9194 262.6 98.1382C262.451 98.353 262.34 98.6011 262.266 98.8823C262.192 99.1597 262.155 99.4546 262.155 99.7671ZM269.285 97.6577V103.001H268.201V96.6616H269.256L269.285 97.6577ZM271.266 96.6265L271.26 97.6343C271.17 97.6147 271.084 97.603 271.002 97.5991C270.924 97.5913 270.834 97.5874 270.733 97.5874C270.483 97.5874 270.262 97.6265 270.071 97.7046C269.879 97.7827 269.717 97.8921 269.584 98.0327C269.451 98.1733 269.346 98.3413 269.268 98.5366C269.194 98.728 269.145 98.939 269.121 99.1694L268.817 99.3452C268.817 98.9624 268.854 98.603 268.928 98.2671C269.006 97.9312 269.125 97.6343 269.285 97.3765C269.446 97.1147 269.649 96.9116 269.895 96.7671C270.145 96.6187 270.442 96.5444 270.785 96.5444C270.864 96.5444 270.953 96.5542 271.055 96.5737C271.156 96.5894 271.227 96.6069 271.266 96.6265Z" fill="#333333"/>
<path d="M209.859 209.915L211.91 213.185L213.961 209.915H215.279L212.584 214.14L215.344 218.446H214.013L211.91 215.112L209.806 218.446H208.476L211.236 214.14L208.541 209.915H209.859ZM212.959 231.216V223.446H214.049V232.446H213.052L212.959 231.216ZM208.693 229.347V229.224C208.693 228.739 208.752 228.3 208.869 227.905C208.99 227.507 209.16 227.165 209.379 226.88C209.601 226.595 209.865 226.376 210.17 226.224C210.478 226.067 210.822 225.989 211.201 225.989C211.599 225.989 211.947 226.06 212.244 226.2C212.545 226.337 212.799 226.538 213.006 226.804C213.217 227.065 213.383 227.382 213.504 227.753C213.625 228.124 213.709 228.544 213.756 229.013V229.552C213.713 230.017 213.629 230.435 213.504 230.806C213.383 231.177 213.217 231.493 213.006 231.755C212.799 232.017 212.545 232.218 212.244 232.358C211.943 232.495 211.592 232.563 211.189 232.563C210.818 232.563 210.478 232.483 210.17 232.323C209.865 232.163 209.601 231.938 209.379 231.649C209.16 231.36 208.99 231.021 208.869 230.63C208.752 230.235 208.693 229.808 208.693 229.347ZM209.783 229.224V229.347C209.783 229.663 209.814 229.96 209.877 230.237C209.943 230.515 210.045 230.759 210.181 230.97C210.318 231.181 210.492 231.347 210.703 231.468C210.914 231.585 211.166 231.644 211.459 231.644C211.818 231.644 212.113 231.567 212.344 231.415C212.578 231.263 212.765 231.062 212.906 230.812C213.047 230.562 213.156 230.29 213.234 229.997V228.585C213.187 228.37 213.119 228.163 213.029 227.964C212.943 227.761 212.83 227.581 212.689 227.425C212.552 227.265 212.383 227.138 212.179 227.044C211.98 226.95 211.744 226.903 211.47 226.903C211.174 226.903 210.918 226.966 210.703 227.091C210.492 227.212 210.318 227.38 210.181 227.595C210.045 227.806 209.943 228.052 209.877 228.333C209.814 228.61 209.783 228.907 209.783 229.224Z" fill="#333333"/>
<path d="M51.1945 209.915V218.446H50.0637V209.915H51.1945ZM54.1711 213.46V218.446H53.0871V212.106H54.1125L54.1711 213.46ZM53.9133 215.036L53.4621 215.019C53.466 214.585 53.5305 214.185 53.6555 213.817C53.7805 213.446 53.9563 213.124 54.1828 212.851C54.4094 212.577 54.6789 212.366 54.9914 212.218C55.3078 212.065 55.6574 211.989 56.0402 211.989C56.3527 211.989 56.634 212.032 56.884 212.118C57.134 212.2 57.3469 212.333 57.5227 212.517C57.7024 212.7 57.8391 212.938 57.9328 213.231C58.0266 213.521 58.0734 213.874 58.0734 214.292V218.446H56.9836V214.28C56.9836 213.948 56.9348 213.683 56.8371 213.483C56.7395 213.28 56.5969 213.134 56.4094 213.044C56.2219 212.95 55.9914 212.903 55.718 212.903C55.4484 212.903 55.2024 212.96 54.9797 213.073C54.7609 213.187 54.5715 213.343 54.4113 213.542C54.2551 213.741 54.132 213.97 54.0422 214.228C53.9563 214.481 53.9133 214.751 53.9133 215.036ZM63.716 217.216V209.446H64.8059V218.446H63.8098L63.716 217.216ZM59.4504 215.347V215.224C59.4504 214.739 59.509 214.3 59.6262 213.905C59.7473 213.507 59.9172 213.165 60.1359 212.88C60.3586 212.595 60.6223 212.376 60.927 212.224C61.2356 212.067 61.5793 211.989 61.9582 211.989C62.3566 211.989 62.7043 212.06 63.0012 212.2C63.302 212.337 63.5559 212.538 63.7629 212.804C63.9738 213.065 64.1399 213.382 64.2609 213.753C64.382 214.124 64.466 214.544 64.5129 215.013V215.552C64.4699 216.017 64.3859 216.435 64.2609 216.806C64.1399 217.177 63.9738 217.493 63.7629 217.755C63.5559 218.017 63.302 218.218 63.0012 218.358C62.7004 218.495 62.3488 218.563 61.9465 218.563C61.5754 218.563 61.2356 218.483 60.927 218.323C60.6223 218.163 60.3586 217.938 60.1359 217.649C59.9172 217.36 59.7473 217.021 59.6262 216.63C59.509 216.235 59.4504 215.808 59.4504 215.347ZM60.5402 215.224V215.347C60.5402 215.663 60.5715 215.96 60.634 216.237C60.7004 216.515 60.802 216.759 60.9387 216.97C61.0754 217.181 61.2492 217.347 61.4602 217.468C61.6711 217.585 61.9231 217.644 62.216 217.644C62.5754 217.644 62.8703 217.567 63.1008 217.415C63.3352 217.263 63.5227 217.062 63.6633 216.812C63.8039 216.562 63.9133 216.29 63.9914 215.997V214.585C63.9445 214.37 63.8762 214.163 63.7863 213.964C63.7004 213.761 63.5871 213.581 63.4465 213.425C63.3098 213.265 63.1399 213.138 62.9367 213.044C62.7375 212.95 62.5012 212.903 62.2277 212.903C61.9309 212.903 61.675 212.966 61.4602 213.091C61.2492 213.212 61.0754 213.38 60.9387 213.595C60.802 213.806 60.7004 214.052 60.634 214.333C60.5715 214.61 60.5402 214.907 60.5402 215.224ZM69.1242 218.563C68.6828 218.563 68.2824 218.489 67.9231 218.341C67.5676 218.188 67.2609 217.976 67.0031 217.702C66.7492 217.429 66.5539 217.104 66.4172 216.729C66.2805 216.354 66.2121 215.944 66.2121 215.499V215.253C66.2121 214.737 66.2883 214.278 66.4406 213.876C66.593 213.47 66.8 213.126 67.0617 212.845C67.3234 212.563 67.6203 212.351 67.9524 212.206C68.2844 212.062 68.6281 211.989 68.9836 211.989C69.4367 211.989 69.8274 212.067 70.1555 212.224C70.4875 212.38 70.759 212.599 70.9699 212.88C71.1809 213.157 71.3371 213.485 71.4387 213.864C71.5402 214.239 71.591 214.649 71.591 215.095V215.581H66.8566V214.696H70.507V214.614C70.4914 214.333 70.4328 214.06 70.3313 213.794C70.2336 213.528 70.0774 213.31 69.8625 213.138C69.6477 212.966 69.3547 212.88 68.9836 212.88C68.7375 212.88 68.5109 212.933 68.3039 213.038C68.0969 213.14 67.9191 213.292 67.7707 213.495C67.6223 213.698 67.507 213.946 67.425 214.239C67.343 214.532 67.302 214.87 67.302 215.253V215.499C67.302 215.8 67.343 216.083 67.425 216.349C67.5109 216.61 67.634 216.841 67.7941 217.04C67.9582 217.239 68.1555 217.396 68.3859 217.509C68.6203 217.622 68.8859 217.679 69.1828 217.679C69.5656 217.679 69.8899 217.601 70.1555 217.444C70.4211 217.288 70.6535 217.079 70.8527 216.817L71.509 217.339C71.3723 217.546 71.1984 217.743 70.9875 217.931C70.7766 218.118 70.5168 218.271 70.2082 218.388C69.9035 218.505 69.5422 218.563 69.1242 218.563ZM54.0598 230.765C54.0598 230.608 54.0246 230.464 53.9543 230.331C53.8879 230.194 53.7492 230.071 53.5383 229.962C53.3313 229.849 53.0188 229.751 52.6008 229.669C52.2492 229.595 51.9309 229.507 51.6457 229.405C51.3645 229.304 51.1242 229.181 50.925 229.036C50.7297 228.892 50.5793 228.722 50.4738 228.526C50.3684 228.331 50.3156 228.103 50.3156 227.841C50.3156 227.591 50.3703 227.354 50.4797 227.132C50.593 226.909 50.7512 226.712 50.9543 226.54C51.1613 226.368 51.4094 226.233 51.6984 226.136C51.9875 226.038 52.3098 225.989 52.6652 225.989C53.1731 225.989 53.6066 226.079 53.966 226.259C54.3254 226.438 54.6008 226.679 54.7922 226.979C54.9836 227.276 55.0793 227.606 55.0793 227.97H53.9953C53.9953 227.794 53.9426 227.624 53.8371 227.46C53.7356 227.292 53.5852 227.153 53.3859 227.044C53.1906 226.935 52.9504 226.88 52.6652 226.88C52.3645 226.88 52.1203 226.927 51.9328 227.021C51.7492 227.11 51.6145 227.226 51.5285 227.366C51.4465 227.507 51.4055 227.655 51.4055 227.812C51.4055 227.929 51.425 228.034 51.4641 228.128C51.507 228.218 51.5813 228.302 51.6867 228.38C51.7922 228.454 51.9406 228.524 52.132 228.591C52.3234 228.657 52.5676 228.724 52.8645 228.79C53.384 228.907 53.8117 229.048 54.1477 229.212C54.4836 229.376 54.7336 229.577 54.8977 229.815C55.0617 230.054 55.1438 230.343 55.1438 230.683C55.1438 230.96 55.0852 231.214 54.968 231.444C54.8547 231.675 54.6887 231.874 54.4699 232.042C54.2551 232.206 53.9973 232.335 53.6965 232.429C53.3996 232.519 53.0656 232.563 52.6945 232.563C52.1359 232.563 51.6633 232.464 51.2766 232.265C50.8899 232.065 50.5969 231.808 50.3977 231.491C50.1984 231.175 50.0988 230.841 50.0988 230.489H51.1887C51.2043 230.786 51.2902 231.022 51.4465 231.198C51.6027 231.37 51.7941 231.493 52.0207 231.567C52.2473 231.638 52.4719 231.673 52.6945 231.673C52.9914 231.673 53.2395 231.634 53.4387 231.556C53.6418 231.478 53.7961 231.37 53.9016 231.233C54.007 231.097 54.0598 230.94 54.0598 230.765ZM57.7453 226.106V232.446H56.6555V226.106H57.7453ZM56.5734 224.425C56.5734 224.249 56.6262 224.101 56.7316 223.979C56.841 223.858 57.0012 223.798 57.2121 223.798C57.4191 223.798 57.5774 223.858 57.6867 223.979C57.8 224.101 57.8566 224.249 57.8566 224.425C57.8566 224.593 57.8 224.737 57.6867 224.858C57.5774 224.976 57.4191 225.034 57.2121 225.034C57.0012 225.034 56.841 224.976 56.7316 224.858C56.6262 224.737 56.5734 224.593 56.5734 224.425ZM63.593 226.106H64.5774V232.312C64.5774 232.87 64.4641 233.347 64.2375 233.741C64.0109 234.136 63.6945 234.435 63.2883 234.638C62.8859 234.845 62.4211 234.948 61.8938 234.948C61.675 234.948 61.4172 234.913 61.1203 234.843C60.8274 234.776 60.5383 234.661 60.2531 234.497C59.9719 234.337 59.7356 234.12 59.5441 233.847L60.1125 233.202C60.3781 233.522 60.6555 233.745 60.9445 233.87C61.2375 233.995 61.5266 234.058 61.8117 234.058C62.1555 234.058 62.4524 233.993 62.7024 233.864C62.9524 233.735 63.1457 233.544 63.2824 233.29C63.4231 233.04 63.4934 232.731 63.4934 232.364V227.501L63.593 226.106ZM59.2277 229.347V229.224C59.2277 228.739 59.2844 228.3 59.3977 227.905C59.5149 227.507 59.6809 227.165 59.8957 226.88C60.1145 226.595 60.3781 226.376 60.6867 226.224C60.9953 226.067 61.343 225.989 61.7297 225.989C62.1281 225.989 62.4758 226.06 62.7727 226.2C63.0734 226.337 63.3274 226.538 63.5344 226.804C63.7453 227.065 63.9113 227.382 64.0324 227.753C64.1535 228.124 64.2375 228.544 64.2844 229.013V229.552C64.2414 230.017 64.1574 230.435 64.0324 230.806C63.9113 231.177 63.7453 231.493 63.5344 231.755C63.3274 232.017 63.0734 232.218 62.7727 232.358C62.4719 232.495 62.1203 232.563 61.718 232.563C61.3391 232.563 60.9953 232.483 60.6867 232.323C60.382 232.163 60.1203 231.938 59.9016 231.649C59.6828 231.36 59.5149 231.021 59.3977 230.63C59.2844 230.235 59.2277 229.808 59.2277 229.347ZM60.3117 229.224V229.347C60.3117 229.663 60.343 229.96 60.4055 230.237C60.4719 230.515 60.5715 230.759 60.7043 230.97C60.841 231.181 61.0149 231.347 61.2258 231.468C61.4367 231.585 61.6887 231.644 61.9816 231.644C62.341 231.644 62.6379 231.567 62.8723 231.415C63.1066 231.263 63.2922 231.062 63.4289 230.812C63.5695 230.562 63.6789 230.29 63.757 229.997V228.585C63.7141 228.37 63.6477 228.163 63.5578 227.964C63.4719 227.761 63.3586 227.581 63.218 227.425C63.0813 227.265 62.9113 227.138 62.7082 227.044C62.5051 226.95 62.2668 226.903 61.9934 226.903C61.6965 226.903 61.4406 226.966 61.2258 227.091C61.0149 227.212 60.841 227.38 60.7043 227.595C60.5715 227.806 60.4719 228.052 60.4055 228.333C60.343 228.61 60.3117 228.907 60.3117 229.224ZM67.3078 227.46V232.446H66.2238V226.106H67.2492L67.3078 227.46ZM67.05 229.036L66.5988 229.019C66.6027 228.585 66.6672 228.185 66.7922 227.817C66.9172 227.446 67.093 227.124 67.3195 226.851C67.5461 226.577 67.8156 226.366 68.1281 226.218C68.4445 226.065 68.7941 225.989 69.177 225.989C69.4895 225.989 69.7707 226.032 70.0207 226.118C70.2707 226.2 70.4836 226.333 70.6594 226.517C70.8391 226.7 70.9758 226.938 71.0695 227.231C71.1633 227.521 71.2102 227.874 71.2102 228.292V232.446H70.1203V228.28C70.1203 227.948 70.0715 227.683 69.9738 227.483C69.8762 227.28 69.7336 227.134 69.5461 227.044C69.3586 226.95 69.1281 226.903 68.8547 226.903C68.5852 226.903 68.3391 226.96 68.1164 227.073C67.8977 227.187 67.7082 227.343 67.5481 227.542C67.3918 227.741 67.2688 227.97 67.1789 228.228C67.093 228.481 67.05 228.751 67.05 229.036Z" fill="#333333"/>
<path d="M5.70139 85.6558H3.4221V84.7358H5.70139C6.1428 84.7358 6.50022 84.6655 6.77366 84.5249C7.0471 84.3843 7.24632 84.189 7.37132 83.939C7.50022 83.689 7.56467 83.4038 7.56467 83.0835C7.56467 82.7905 7.50022 82.5151 7.37132 82.2573C7.24632 81.9995 7.0471 81.7925 6.77366 81.6362C6.50022 81.4761 6.1428 81.396 5.70139 81.396H3.68577V89.0015H2.55491V80.4702H5.70139C6.34592 80.4702 6.89085 80.5815 7.33616 80.8042C7.78147 81.0269 8.11936 81.3354 8.34983 81.73C8.5803 82.1206 8.69553 82.5679 8.69553 83.0718C8.69553 83.6187 8.5803 84.0854 8.34983 84.4722C8.11936 84.8589 7.78147 85.1538 7.33616 85.3569C6.89085 85.5562 6.34592 85.6558 5.70139 85.6558ZM11.0451 83.6577V89.0015H9.96116V82.6616H11.0158L11.0451 83.6577ZM13.0256 82.6265L13.0198 83.6343C12.9299 83.6147 12.844 83.603 12.7619 83.5991C12.6838 83.5913 12.594 83.5874 12.4924 83.5874C12.2424 83.5874 12.0217 83.6265 11.8303 83.7046C11.6389 83.7827 11.4768 83.8921 11.344 84.0327C11.2112 84.1733 11.1057 84.3413 11.0276 84.5366C10.9533 84.728 10.9045 84.939 10.8811 85.1694L10.5764 85.3452C10.5764 84.9624 10.6135 84.603 10.6877 84.2671C10.7658 83.9312 10.885 83.6343 11.0451 83.3765C11.2053 83.1147 11.4084 82.9116 11.6545 82.7671C11.9045 82.6187 12.2014 82.5444 12.5451 82.5444C12.6233 82.5444 12.7131 82.5542 12.8147 82.5737C12.9162 82.5894 12.9865 82.6069 13.0256 82.6265ZM16.5412 89.1187C16.0998 89.1187 15.6994 89.0444 15.3401 88.896C14.9846 88.7437 14.678 88.5308 14.4201 88.2573C14.1662 87.9839 13.9709 87.6597 13.8342 87.2847C13.6975 86.9097 13.6291 86.4995 13.6291 86.0542V85.8081C13.6291 85.2925 13.7053 84.8335 13.8576 84.4312C14.01 84.0249 14.217 83.6812 14.4787 83.3999C14.7405 83.1187 15.0373 82.9058 15.3694 82.7612C15.7014 82.6167 16.0451 82.5444 16.4006 82.5444C16.8537 82.5444 17.2444 82.6226 17.5725 82.7788C17.9045 82.9351 18.176 83.1538 18.3869 83.4351C18.5979 83.7124 18.7541 84.0405 18.8557 84.4194C18.9573 84.7944 19.008 85.2046 19.008 85.6499V86.1362H14.2737V85.2515H17.924V85.1694C17.9084 84.8882 17.8498 84.6147 17.7483 84.3491C17.6506 84.0835 17.4944 83.8647 17.2795 83.6929C17.0647 83.521 16.7717 83.4351 16.4006 83.4351C16.1545 83.4351 15.928 83.4878 15.7209 83.5933C15.5139 83.6948 15.3362 83.8472 15.1877 84.0503C15.0393 84.2534 14.924 84.5015 14.842 84.7944C14.76 85.0874 14.719 85.4253 14.719 85.8081V86.0542C14.719 86.355 14.76 86.6382 14.842 86.9038C14.928 87.1655 15.051 87.396 15.2112 87.5952C15.3752 87.7944 15.5725 87.9507 15.803 88.064C16.0373 88.1772 16.303 88.2339 16.5998 88.2339C16.9826 88.2339 17.3069 88.1558 17.5725 87.9995C17.8381 87.8433 18.0705 87.6343 18.2698 87.3726L18.926 87.894C18.7893 88.1011 18.6155 88.2983 18.4045 88.4858C18.1936 88.6733 17.9338 88.8257 17.6252 88.9429C17.3205 89.0601 16.9592 89.1187 16.5412 89.1187ZM21.3518 83.9214V89.0015H20.2619V82.6616H21.2932L21.3518 83.9214ZM21.1291 85.5913L20.6252 85.5737C20.6291 85.1401 20.6858 84.7397 20.7951 84.3726C20.9045 84.0015 21.0666 83.6792 21.2815 83.4058C21.4963 83.1323 21.7639 82.9214 22.0842 82.7729C22.4045 82.6206 22.7756 82.5444 23.1975 82.5444C23.4944 82.5444 23.7678 82.5874 24.0178 82.6733C24.2678 82.7554 24.4846 82.8862 24.6682 83.0659C24.8518 83.2456 24.9944 83.4761 25.0959 83.7573C25.1975 84.0386 25.2483 84.3784 25.2483 84.7769V89.0015H24.1643V84.8296C24.1643 84.4976 24.1076 84.2319 23.9944 84.0327C23.885 83.8335 23.7287 83.689 23.5256 83.5991C23.3225 83.5054 23.0842 83.4585 22.8108 83.4585C22.4905 83.4585 22.2229 83.5151 22.008 83.6284C21.7932 83.7417 21.6213 83.8979 21.4924 84.0972C21.3635 84.2964 21.2698 84.5249 21.2112 84.7827C21.1565 85.0366 21.1291 85.3062 21.1291 85.5913ZM25.2365 84.9937L24.51 85.2163C24.5139 84.8687 24.5705 84.5347 24.6799 84.2144C24.7932 83.894 24.9553 83.6089 25.1662 83.3589C25.3811 83.1089 25.6448 82.9116 25.9573 82.7671C26.2698 82.6187 26.6272 82.5444 27.0295 82.5444C27.3694 82.5444 27.6701 82.5894 27.9319 82.6792C28.1975 82.769 28.4201 82.9077 28.5998 83.0952C28.7834 83.2788 28.9221 83.5151 29.0158 83.8042C29.1096 84.0933 29.1565 84.437 29.1565 84.8354V89.0015H28.0666V84.8237C28.0666 84.4683 28.01 84.1929 27.8967 83.9976C27.7873 83.7983 27.6311 83.6597 27.428 83.5815C27.2287 83.4995 26.9905 83.4585 26.7131 83.4585C26.4748 83.4585 26.2639 83.4995 26.0803 83.5815C25.8967 83.6636 25.7424 83.7769 25.6174 83.9214C25.4924 84.062 25.3967 84.2241 25.3303 84.4077C25.2678 84.5913 25.2365 84.7866 25.2365 84.9937ZM12.3811 96.6616V103.001H11.2912V96.6616H12.3811ZM11.2092 94.98C11.2092 94.8042 11.2619 94.6558 11.3674 94.5347C11.4768 94.4136 11.6369 94.353 11.8479 94.353C12.0549 94.353 12.2131 94.4136 12.3225 94.5347C12.4358 94.6558 12.4924 94.8042 12.4924 94.98C12.4924 95.1479 12.4358 95.2925 12.3225 95.4136C12.2131 95.5308 12.0549 95.5894 11.8479 95.5894C11.6369 95.5894 11.4768 95.5308 11.3674 95.4136C11.2619 95.2925 11.2092 95.1479 11.2092 94.98ZM16.7522 103.119C16.3108 103.119 15.9104 103.044 15.551 102.896C15.1955 102.744 14.8889 102.531 14.6311 102.257C14.3772 101.984 14.1819 101.66 14.0451 101.285C13.9084 100.91 13.8401 100.5 13.8401 100.054V99.8081C13.8401 99.2925 13.9162 98.8335 14.0686 98.4312C14.2209 98.0249 14.428 97.6812 14.6897 97.3999C14.9514 97.1187 15.2483 96.9058 15.5803 96.7612C15.9123 96.6167 16.2561 96.5444 16.6115 96.5444C17.0647 96.5444 17.4553 96.6226 17.7834 96.7788C18.1155 96.9351 18.3869 97.1538 18.5979 97.4351C18.8088 97.7124 18.9651 98.0405 19.0666 98.4194C19.1682 98.7944 19.219 99.2046 19.219 99.6499V100.136H14.4846V99.2515H18.135V99.1694C18.1194 98.8882 18.0608 98.6147 17.9592 98.3491C17.8615 98.0835 17.7053 97.8647 17.4905 97.6929C17.2756 97.521 16.9826 97.4351 16.6115 97.4351C16.3655 97.4351 16.1389 97.4878 15.9319 97.5933C15.7248 97.6948 15.5471 97.8472 15.3987 98.0503C15.2502 98.2534 15.135 98.5015 15.053 98.7944C14.9709 99.0874 14.9299 99.4253 14.9299 99.8081V100.054C14.9299 100.355 14.9709 100.638 15.053 100.904C15.1389 101.166 15.2619 101.396 15.4221 101.595C15.5862 101.794 15.7834 101.951 16.0139 102.064C16.2483 102.177 16.5139 102.234 16.8108 102.234C17.1936 102.234 17.5178 102.156 17.7834 102C18.049 101.843 18.2815 101.634 18.4807 101.373L19.1369 101.894C19.0002 102.101 18.8264 102.298 18.6155 102.486C18.4045 102.673 18.1448 102.826 17.8362 102.943C17.5315 103.06 17.1701 103.119 16.7522 103.119ZM21.5686 97.6577V103.001H20.4846V96.6616H21.5393L21.5686 97.6577ZM23.549 96.6265L23.5432 97.6343C23.4533 97.6147 23.3674 97.603 23.2854 97.5991C23.2073 97.5913 23.1174 97.5874 23.0158 97.5874C22.7658 97.5874 22.5451 97.6265 22.3537 97.7046C22.1623 97.7827 22.0002 97.8921 21.8674 98.0327C21.7346 98.1733 21.6291 98.3413 21.551 98.5366C21.4768 98.728 21.428 98.939 21.4045 99.1694L21.0998 99.3452C21.0998 98.9624 21.1369 98.603 21.2112 98.2671C21.2893 97.9312 21.4084 97.6343 21.5686 97.3765C21.7287 97.1147 21.9319 96.9116 22.178 96.7671C22.428 96.6187 22.7248 96.5444 23.0686 96.5444C23.1467 96.5444 23.2365 96.5542 23.3381 96.5737C23.4397 96.5894 23.51 96.6069 23.549 96.6265ZM27.0647 103.119C26.6233 103.119 26.2229 103.044 25.8635 102.896C25.508 102.744 25.2014 102.531 24.9436 102.257C24.6897 101.984 24.4944 101.66 24.3576 101.285C24.2209 100.91 24.1526 100.5 24.1526 100.054V99.8081C24.1526 99.2925 24.2287 98.8335 24.3811 98.4312C24.5334 98.0249 24.7405 97.6812 25.0022 97.3999C25.2639 97.1187 25.5608 96.9058 25.8928 96.7612C26.2248 96.6167 26.5686 96.5444 26.924 96.5444C27.3772 96.5444 27.7678 96.6226 28.0959 96.7788C28.428 96.9351 28.6994 97.1538 28.9104 97.4351C29.1213 97.7124 29.2776 98.0405 29.3791 98.4194C29.4807 98.7944 29.5315 99.2046 29.5315 99.6499V100.136H24.7971V99.2515H28.4475V99.1694C28.4319 98.8882 28.3733 98.6147 28.2717 98.3491C28.174 98.0835 28.0178 97.8647 27.803 97.6929C27.5881 97.521 27.2951 97.4351 26.924 97.4351C26.678 97.4351 26.4514 97.4878 26.2444 97.5933C26.0373 97.6948 25.8596 97.8472 25.7112 98.0503C25.5627 98.2534 25.4475 98.5015 25.3655 98.7944C25.2834 99.0874 25.2424 99.4253 25.2424 99.8081V100.054C25.2424 100.355 25.2834 100.638 25.3655 100.904C25.4514 101.166 25.5744 101.396 25.7346 101.595C25.8987 101.794 26.0959 101.951 26.3264 102.064C26.5608 102.177 26.8264 102.234 27.1233 102.234C27.5061 102.234 27.8303 102.156 28.0959 102C28.3615 101.843 28.594 101.634 28.7932 101.373L29.4494 101.894C29.3127 102.101 29.1389 102.298 28.928 102.486C28.717 102.673 28.4573 102.826 28.1487 102.943C27.844 103.06 27.4826 103.119 27.0647 103.119Z" fill="#333333"/>
</svg>
