<svg width="54" height="54" viewBox="0 0 54 54" fill="none" xmlns="http://www.w3.org/2000/svg">
<path d="M15.7502 31.5C14.768 31.5015 13.798 31.7172 12.9079 32.1323C12.0177 32.5473 11.2288 33.1516 10.5963 33.903C9.96382 34.6544 9.5029 35.5347 9.24574 36.4826C8.98858 37.4305 8.94137 38.4231 9.10741 39.3911C9.27345 40.3592 9.64874 41.2793 10.2071 42.0873C10.7654 42.8953 11.4934 43.5717 12.3401 44.0694C13.1869 44.567 14.132 44.8739 15.1096 44.9686C16.0872 45.0632 17.0737 44.9434 18.0002 44.6175" stroke="#0956AF" stroke-width="2" stroke-linecap="round" stroke-linejoin="round"/>
<path d="M9.59405 35.1113C8.24757 34.4631 7.08369 33.4898 6.20746 32.2792C5.33124 31.0686 4.77024 29.6589 4.57511 28.1773C4.37997 26.6957 4.55684 25.1889 5.08975 23.7927C5.62265 22.3966 6.49483 21.1551 7.62755 20.1803M7.69505 19.9981C6.95715 18.8939 6.63373 17.5642 6.78205 16.2445C6.93037 14.9247 7.54086 13.7 8.50545 12.7871C9.47003 11.8743 10.7265 11.3322 12.0524 11.2567C13.3783 11.1813 14.6882 11.5775 15.75 12.3751M16.2855 12.5213C15.9266 11.7587 15.7437 10.9251 15.7502 10.0822C15.7568 9.23936 15.9527 8.40874 16.3234 7.65177C16.6942 6.89479 17.2303 6.23082 17.8922 5.70892C18.5541 5.18702 19.3248 4.82055 20.1474 4.63658C20.9699 4.45262 21.8233 4.45587 22.6445 4.64609C23.4656 4.83631 24.2335 5.20865 24.8914 5.73557C25.5493 6.26249 26.0804 6.93053 26.4454 7.6903C26.8103 8.45008 26.9999 9.28217 27 10.1251M27 10.1251V45.0001M27 10.1251C27.0002 9.28217 27.1898 8.45008 27.5547 7.6903C27.9197 6.93053 28.4508 6.26249 29.1087 5.73557C29.7666 5.20865 30.5345 4.83631 31.3556 4.64609C32.1768 4.45587 33.0302 4.45262 33.8527 4.63658C34.6753 4.82055 35.446 5.18702 36.1079 5.70892C36.7698 6.23082 37.3059 6.89479 37.6767 7.65177C38.0474 8.40874 38.2433 9.23936 38.2499 10.0822C38.2564 10.9251 38.0735 11.7587 37.7145 12.5213M27 45.0001C27 46.1935 26.5259 47.3381 25.682 48.182C24.8381 49.026 23.6935 49.5001 22.5 49.5001C21.3066 49.5001 20.162 49.026 19.3181 48.182C18.4742 47.3381 18 46.1935 18 45.0001M27 45.0001C27 46.1935 27.4742 47.3381 28.3181 48.182C29.162 49.026 30.3066 49.5001 31.5 49.5001M27 15.7501C27 17.5403 27.7112 19.2572 28.9771 20.523C30.2429 21.7889 31.9598 22.5001 33.75 22.5001M46.3726 20.1803C47.3549 21.0242 48.143 22.0706 48.6829 23.2478C49.2227 24.425 49.5015 25.705 49.5 27.0001C49.5 28.5818 49.0928 30.0691 48.3751 31.3606M46.305 19.9981C47.043 18.8939 47.3664 17.5642 47.2181 16.2445C47.0697 14.9247 46.4592 13.7 45.4947 12.7871C44.5301 11.8743 43.2736 11.3322 41.9477 11.2567C40.6218 11.1813 39.3119 11.5775 38.25 12.3751" stroke="#0956AF" stroke-width="2" stroke-linecap="round" stroke-linejoin="round"/>
<path d="M42.0008 36L38.25 42.75H47.25L43.4993 49.5" stroke="#F8B324" stroke-width="2" stroke-linecap="round" stroke-linejoin="round"/>
</svg>
